<svg xmlns="http://www.w3.org/2000/svg" width="2500" height="1738" preserveAspectRatio="xMinYMin meet" viewBox="0 0 256 178" id="polymer"><g fill="none"><path fill="#FF4081" d="M153.6 177.98L51.194.605H102.4L204.807 177.98H153.6z"></path><path fill="#FFF" fill-opacity=".2" d="M153.6 177.98l25.6-44.344 25.607 44.344H153.6z"></path><path fill="#FFF" fill-opacity=".1" d="M128 133.636l25.6 44.344 25.6-44.344H128z"></path><path fill="#000" fill-opacity=".1" d="M102.4 89.292l25.6 44.344 25.6-44.344h-51.2z"></path><path fill="#000" fill-opacity=".2" d="M102.4 89.292L128 44.948l25.6 44.344h-51.2z"></path><path fill="#000" fill-opacity=".3" d="M76.8 44.948l25.6 44.344 25.601-44.344h-51.2z"></path><path fill="#000" fill-opacity=".4" d="M76.8 44.948L102.4.605l25.601 44.343h-51.2z"></path><path fill="#000" fill-opacity=".5" d="M51.194.605L76.8 44.948 102.4.605H51.195z"></path><g><path fill="#536DFE" d="M51.194 177.98L-.013 89.292l25.606-44.344L102.4 177.98H51.193z"></path><path fill="#FFF" fill-opacity=".2" d="M51.194 177.98L76.8 133.636l25.6 44.344H51.195z"></path><path fill="#FFF" fill-opacity=".1" d="M25.593 133.636l25.6 44.344L76.8 133.636H25.593z"></path><path d="M25.593 133.636l25.6-44.344L76.8 133.636H25.593z"></path><path fill="#000" fill-opacity=".1" d="M-.013 89.292l25.606 44.344 25.6-44.344H-.012z"></path><path fill="#000" fill-opacity=".2" d="M-.013 89.292l25.606-44.344 25.6 44.344H-.012z"></path></g><g><path fill="#303F9F" d="M51.194 89.292l-25.6-44.344L51.193.605 76.8 44.948 51.194 89.292z"></path><path fill="#000" fill-opacity=".2" d="M76.8 44.948L51.194.605l-25.6 44.343H76.8z"></path></g><g><path fill="#3F51B5" d="M204.806 177.98L179.2 133.636l25.606-44.344 25.6 44.344-25.6 44.344z"></path><path fill="#000" fill-opacity=".2" d="M230.407 133.636l-25.6 44.344-25.607-44.344h51.207z"></path></g><g><path fill="#7986CB" d="M230.407 133.636L153.6.605h51.207l51.207 88.687-25.606 44.344h-.001z"></path><path fill="#FFF" fill-opacity=".2" d="M204.806 89.292l25.6 44.344 25.607-44.344h-51.207z"></path><path fill="#FFF" fill-opacity=".1" d="M204.806 89.292l25.6-44.344 25.607 44.344h-51.207z"></path><path fill="#000" fill-opacity=".1" d="M179.2 44.948L204.806.605l25.6 44.343H179.2z"></path><path fill="#000" fill-opacity=".2" d="M153.6.605l25.6 44.343L204.808.605H153.6z"></path></g></g></svg>